<svg xmlns="http://www.w3.org/2000/svg" xmlns:svg="http://www.w3.org/2000/svg" xmlns:xlink="http://www.w3.org/1999/xlink" id="svg2" width="290" height="201" x="0" y="0" enable-background="new 0 0 290 201" version="1.1" viewBox="0 0 290 201" xml:space="preserve"><g id="layer2" transform="translate(-632.83826,-573.61255)"><rect id="rect4451" width="290" height="201" x="632.838" y="573.613" fill="#171921"/><path id="path4870" fill="#FFF" d="M1209.229,729.236h-28.65v7.283 c0,1.598,0.467,2.987,1.4,4.168c0.934,1.182,2.086,1.841,3.453,1.771h23.609v5.014h-25.113c-2.24,0-4.168-0.869-5.787-2.605 c-1.557-1.807-2.334-3.96-2.334-6.461v-24.594c0-2.5,0.777-4.619,2.334-6.356c1.619-1.806,3.547-2.709,5.787-2.71h17.178 c2.24,0.001,4.139,0.904,5.695,2.71c1.617,1.737,2.428,3.856,2.428,6.356V729.236 M1204.27,724.639v-8.94 c0-1.598-0.467-2.986-1.4-4.168c-0.934-1.181-2.115-1.771-3.547-1.771h-13.891c-1.369,0-2.52,0.591-3.453,1.771 c-0.934,1.182-1.656,2.597-1.4,4.168v8.94H1204.27 M1163.45,683.071l-0.094,64.401h-25.484c-2.24,0-4.17-0.869-5.789-2.605 c-1.555-1.807-2.334-3.96-2.334-6.461l0.094-24.594c0.062-2.5,0.871-4.619,2.428-6.356c1.555-1.806,3.453-2.71,5.693-2.71h20.342 l0.094-21.675H1163.45 M1158.305,742.875l-0.094-33.533h-18.744c-1.369,0-2.52,0.66-3.453,1.979c-0.934,1.32-1.4,2.779-1.4,4.377 l0.092,20.82c0,1.598,0.436,3.057,1.309,4.377c0.871,1.32,1.99,1.979,3.359,1.979H1158.305 M1117.883,738.406 c0,2.501-0.809,4.654-2.426,6.461c-1.557,1.736-3.455,2.605-5.695,2.605h-19.045c-2.24,0-4.17-0.869-5.787-2.605 c-1.557-1.807-2.334-3.96-2.334-6.461v-24.594c0-2.5,0.777-4.619,2.334-6.356c1.617-1.806,3.547-2.71,5.787-2.71h19.045 c2.24,0,4.139,0.904,5.695,2.71c1.617,1.737,2.426,3.856,2.426,6.356V738.406 M1112.926,736.519v-20.82 c0-1.598-0.467-2.986-1.4-4.168c-0.934-1.181-2.115-1.771-3.547-1.771h-15.758c-1.369,0-2.52,0.591-3.453,1.771 c-0.934,1.182-1.4,2.57-1.4,4.168v20.82c0,1.598,0.467,2.987,1.4,4.168c0.934,1.182,2.084,1.771,3.453,1.771h15.758 c1.432,0,2.613-0.59,3.547-1.771C1112.459,739.506,1112.926,738.116,1112.926,736.519 M1069.653,727.892h-4.959v-12.193 c0-1.598-0.467-2.986-1.4-4.168c-0.932-1.181-2.115-1.771-3.547-1.771h-13.891c-1.369,0-2.52,0.591-3.453,1.771 c-0.934,1.182-1.4,2.57-1.4,4.168v20.82c0,1.598,0.467,2.987,1.4,4.168c0.934,1.182,2.084,1.771,3.453,1.771h23.516l0.094,5.014 h-25.113c-2.24,0-4.17-0.869-5.787-2.605c-1.557-1.807-2.334-3.96-2.334-6.461v-24.594c0-2.5,0.777-4.619,2.334-6.356 c1.617-1.806,3.547-2.709,5.787-2.71h17.178c2.24,0.001,4.139,0.904,5.695,2.71c1.617,1.737,2.428,3.856,2.428,6.356V727.892" display="none"/><g id="g4469" transform="translate(0,-2)"><g id="g4463"><path id="path3118" fill="#FFF" d="M774.838,652.613v-39 c0,0,14.001,0,19.5,0c5.5,0,10.5,5,10.5,10.5c0.001,5.5,0,28.5,0,28.5h-7c0,0,0-18,0-27c0-2.719-2-5-5-5c-3.667,0-11,0-11,0v37 L774.838,652.613z"/><path id="path3120" fill="#FFF" d="M817.838,652.613v-39h7v39 H817.838z"/><path id="path3122" fill="#FFF" d="M817.838,604.613h7v-8l-7,5 V604.613z"/><path id="path3124" fill="#FFF" d="M844.838,652.613 h-7v-39h38.5c6,0,10.5,4.5,10.5,10.5v28.5l-7,5v-32c0-3-2-5-5-5h-9v32h-7v-32h-14V652.613z"/></g><g id="g4459"><path id="path3054" fill="#F3D400" d="M709.691,596.613c0,0-3.41,2.695-6.887,5.372c-3.577-0.114-10.591,0.687-14.392,2.069c-3.501-2.218-6.578-4.667-6.578-4.667 s-2.629,4.523-4.282,7.177c-2.452,1.304-4.914,2.771-7.108,4.711c-2.552-1.013-5.51-2.249-5.606-2.29 c3.379,6.816,5.651,13.642,11.832,17.745c9.839-15.539,55.56-14.107,65.602-0.088c6.49-3.385,9.014-10.668,11.566-17.392 c-0.28,0.092-3.752,1.255-6.004,2.114c-1.344-1.463-4.512-3.713-6.313-4.799c-1.708-3.128-4.194-7.354-4.194-7.354 s-2.945,2.19-6.357,4.579c-4.61-0.851-10.187-1.885-14.877-1.629C712.9,599.536,709.691,596.613,709.691,596.613L709.691,596.613 z"/><path id="path3051" fill="#FFE953" d="M668.332,623.471 c0,0,4.79,11.598,8.117,19.657c14.096,18.597,50.092,19.89,65.785,0.36c3.713-8.369,8.723-20.13,8.723-20.13 c-4.026,5.964-10.578,10.081-14.613,12.299c-2.868,1.571-9.483,2.521-9.483,2.521l-17.37-9.001l-17.47,8.821 c0,0-6.528-1.049-9.483-2.43C676.574,632.383,672.562,628.621,668.332,623.471L668.332,623.471z"/></g></g></g></svg>